<?xml version="1.0" encoding="UTF-8"?>
<svg version="1.1" xmlns="http://www.w3.org/2000/svg" width="512" height="512">
<path d="M0 0 C0.91007812 0.00128906 1.82015625 0.00257812 2.7578125 0.00390625 C9.46851504 0.09351504 9.46851504 0.09351504 11.75 2.375 C12.0284729 4.89334106 12.0284729 4.89334106 12.06884766 8.10986328 C12.08871735 9.31095734 12.10858704 10.51205139 12.12905884 11.74954224 C12.14061005 13.05164642 12.15216125 14.35375061 12.1640625 15.6953125 C12.1827677 17.03768107 12.20234062 18.38003781 12.2227478 19.72238159 C12.27414391 23.25686678 12.31372926 26.79139012 12.35089111 30.3260498 C12.39088414 33.93230688 12.44199783 37.53840422 12.4921875 41.14453125 C12.5890351 48.22123729 12.67341142 55.29804339 12.75 62.375 C13.43040848 61.89628952 14.11081696 61.41757904 14.81184387 60.92436218 C15.70771713 60.29536514 16.60359039 59.6663681 17.52661133 59.01831055 C18.41326981 58.39522507 19.29992828 57.77213959 20.2134552 57.13017273 C23.23374419 55.0402712 26.29995731 53.09679511 29.4375 51.1875 C30.47261719 50.55457031 31.50773437 49.92164063 32.57421875 49.26953125 C35.75 47.375 35.75 47.375 39.39648438 45.8371582 C41.63544418 44.54842251 42.56786816 43.92505235 43.38838196 41.44703674 C43.62577216 38.96941569 43.64075522 36.5742956 43.58203125 34.0859375 C43.58957932 33.1863028 43.59712738 32.28666809 43.60490417 31.35977173 C43.62342126 28.48882902 43.5949477 25.62078008 43.5625 22.75 C43.55649984 19.87280101 43.56023776 16.99597765 43.57365417 14.11880493 C43.57916499 12.32922563 43.57180254 10.53955244 43.55049133 8.75009155 C43.54332151 6.62403277 43.63768123 4.49810194 43.75 2.375 C46.50944605 -0.38444605 48.14236698 0.11694323 52 0.109375 C53.87171875 0.10550781 53.87171875 0.10550781 55.78125 0.1015625 C57.74578125 0.11316406 57.74578125 0.11316406 59.75 0.125 C61.0596875 0.11726562 62.369375 0.10953125 63.71875 0.1015625 C64.9665625 0.10414062 66.214375 0.10671875 67.5 0.109375 C68.64984375 0.11163086 69.7996875 0.11388672 70.984375 0.11621094 C73.75 0.375 73.75 0.375 75.75 2.375 C75.97705078 5.08056641 75.97705078 5.08056641 75.9453125 8.4765625 C75.93564453 10.29414063 75.93564453 10.29414063 75.92578125 12.1484375 C75.90064453 14.05496094 75.90064453 14.05496094 75.875 16 C75.86597656 17.27875 75.85695312 18.5575 75.84765625 19.875 C75.82402303 23.04185167 75.79107629 26.20833424 75.75 29.375 C76.89855469 28.97667969 78.04710937 28.57835938 79.23046875 28.16796875 C88.33338136 25.04983313 97.30448936 22.27745267 106.75 20.375 C106.82347656 18.46074219 106.82347656 18.46074219 106.8984375 16.5078125 C106.97346191 14.83851928 107.04900988 13.16924954 107.125 11.5 C107.1559375 10.65824219 107.186875 9.81648437 107.21875 8.94921875 C107.27675781 7.74072266 107.27675781 7.74072266 107.3359375 6.5078125 C107.3673584 5.76418457 107.3987793 5.02055664 107.43115234 4.25439453 C107.75 2.375 107.75 2.375 109.75 0.375 C112.97792507 -0.10157951 116.24087625 0.00461632 119.5 0 C120.84191406 -0.03673828 120.84191406 -0.03673828 122.2109375 -0.07421875 C127.91117597 -0.09944104 131.26388621 0.51778067 135.75 4.375 C139.24021841 8.60000123 139.9449987 10.99003601 139.75 16.375 C140.74926514 16.35405273 141.74853027 16.33310547 142.77807617 16.31152344 C147.49765116 16.22118711 152.21727859 16.16798261 156.9375 16.125 C158.22095306 16.11134399 158.22095306 16.11134399 159.53033447 16.09741211 C168.59111549 16.02358682 177.48826798 16.09460706 186.44921875 17.546875 C187.11118759 17.65344421 187.77315643 17.76001343 188.45518494 17.86981201 C191.54484854 18.38752648 194.6015543 18.98016243 197.66088867 19.65527344 C203.63603234 20.93678512 203.63603234 20.93678512 209.08813477 18.83300781 C211.11558722 16.7717445 212.91888956 14.61013877 214.75 12.375 C229.54147859 1.21299643 244.67477827 -1.25611025 262.75 0.375 C276.21025302 2.38464708 286.19397912 10.24009191 295.75 19.375 C296.36617188 19.91640625 296.98234375 20.4578125 297.6171875 21.015625 C313.51791847 35.52412607 323.43098491 61.03711402 327.18286133 81.76660156 C328.16069229 87.15558637 329.52266501 89.94754695 333.5625 93.875 C375.14891729 136.2745207 396.24964252 197.0356409 396.125 255.6875 C396.12418427 257.13641129 396.12418427 257.13641129 396.12335205 258.61459351 C396.06122837 282.68801709 392.72084367 305.29282037 385.75 328.375 C385.49911621 329.21015137 385.24823242 330.04530273 384.98974609 330.90576172 C374.94496387 363.52062052 356.96088189 393.45809584 333.75 418.375 C332.53661781 419.76644666 331.32802197 421.16208639 330.125 422.5625 C324.43659978 429.05610756 318.36021623 434.65028833 311.625 440.05859375 C309.7740034 441.54995378 307.93909151 443.06161746 306.125 444.59765625 C305.25875 445.32855469 304.3925 446.05945313 303.5 446.8125 C302.61183594 447.575625 301.72367187 448.33875 300.80859375 449.125 C298.35685028 450.9285814 296.44580052 452.03942989 293.72265625 453.25 C287.38250704 456.26001082 287.38250704 456.26001082 282.75 461.375 C281.36593456 467.87920296 282.06283792 474.39602538 282.61328125 480.96484375 C283.15710598 489.22985971 280.69890208 496.09905923 275.75 502.6875 C269.63238702 508.96031669 262.41116121 512.55763162 253.65405273 512.98413086 C243.38665628 513.0620322 236.10540378 510.41905498 228.54296875 503.4453125 C224.75528972 499.07173976 222.56451285 493.81853856 220.75 488.375 C219.48929687 488.70113281 218.22859375 489.02726562 216.9296875 489.36328125 C175.81106389 499.76534955 131.67822073 500.15831623 90.75 488.375 C90.54246094 489.0040625 90.33492187 489.633125 90.12109375 490.28125 C86.8947047 499.24494175 82.62600659 505.04707487 74.3125 509.875 C66.25585778 513.579436 57.5891685 513.7993906 49.01171875 511.70703125 C40.25896848 508.24523537 34.56591667 502.11434604 30.66015625 493.70703125 C28.97561195 489.39083835 28.71759713 486.31969824 29.21484375 481.68359375 C30.60070063 470.03085719 30.60070063 470.03085719 27.34521484 459.21044922 C23.66684085 455.71145949 19.29330574 453.51308076 14.73242188 451.36181641 C12.07272189 450.0378623 9.89787035 448.34045689 7.625 446.4375 C6.85929687 445.80714844 6.09359375 445.17679687 5.3046875 444.52734375 C4.04011719 443.46193359 4.04011719 443.46193359 2.75 442.375 C1.94997559 441.70815186 1.94997559 441.70815186 1.13378906 441.02783203 C-9.50203164 432.15080711 -19.3961926 422.99987579 -28.05078125 412.125 C-29.4541579 410.37015602 -30.88665255 408.6379477 -32.35546875 406.9375 C-64.01503695 370.03017095 -84.04405808 317.49152786 -84.48828125 268.8203125 C-84.4980751 267.92929337 -84.50786896 267.03827423 -84.51795959 266.12025452 C-84.76508714 237.79101087 -82.4841722 211.64037141 -74.25 184.375 C-73.87367432 183.12227295 -73.87367432 183.12227295 -73.48974609 181.84423828 C-65.2200002 154.99282542 -51.44201602 130.60953367 -34.4296875 108.37890625 C-33.98294678 107.78627991 -33.53620605 107.19365356 -33.07592773 106.58306885 C-31.25 104.375 -31.25 104.375 -28.7890625 102.02339172 C-21.50178384 94.61172027 -20.00412217 88.94074921 -20.06716919 78.66714478 C-20.10941592 76.9369392 -20.15214166 75.20674526 -20.1953125 73.4765625 C-20.20169616 71.66963756 -20.20306069 69.86268866 -20.19967651 68.05575562 C-20.20151531 63.33234268 -20.25929118 58.61144905 -20.33294678 53.88867188 C-20.44325566 46.31146007 -20.4749128 38.73383365 -20.49230576 31.15592575 C-20.50756308 28.51965827 -20.55144328 25.88503097 -20.59915161 23.24917603 C-20.61262173 21.63047916 -20.62534679 20.01177587 -20.63720703 18.39306641 C-20.65794785 17.66673004 -20.67868866 16.94039368 -20.70005798 16.19204712 C-20.70408689 11.10070882 -19.42584011 8.30357679 -16.25 4.375 C-11.11006824 -0.25709419 -6.57348629 -0.17996576 0 0 Z " fill="#81ADE2" transform="translate(100.25,-0.375)"/>
<path d="M0 0 C4.44501547 3.26160226 8.42599239 6.96076857 12.40625 10.765625 C13.02242188 11.30703125 13.63859375 11.8484375 14.2734375 12.40625 C30.17416847 26.91475107 40.08723491 52.42773902 43.83911133 73.15722656 C44.81694229 78.54621137 46.17891501 81.33817195 50.21875 85.265625 C91.80516729 127.6651457 112.90589252 188.4262659 112.78125 247.078125 C112.78070618 248.04406586 112.78016235 249.01000671 112.77960205 250.00521851 C112.71747837 274.07864209 109.37709367 296.68344537 102.40625 319.765625 C102.15536621 320.60077637 101.90448242 321.43592773 101.64599609 322.29638672 C91.60121387 354.91124552 73.61713189 384.84872084 50.40625 409.765625 C49.19286781 411.15707166 47.98427197 412.55271139 46.78125 413.953125 C41.09284978 420.44673256 35.01646623 426.04091333 28.28125 431.44921875 C26.4302534 432.94057878 24.59534151 434.45224246 22.78125 435.98828125 C21.915 436.71917969 21.04875 437.45007813 20.15625 438.203125 C19.26808594 438.96625 18.37992188 439.729375 17.46484375 440.515625 C15.01310028 442.3192064 13.10205052 443.43005489 10.37890625 444.640625 C4.03875704 447.65063582 4.03875704 447.65063582 -0.59375 452.765625 C-1.97781544 459.26982796 -1.28091208 465.78665038 -0.73046875 472.35546875 C-0.18664402 480.62048471 -2.64484792 487.48968423 -7.59375 494.078125 C-13.71136298 500.35094169 -20.93258879 503.94825662 -29.68969727 504.37475586 C-39.80854936 504.45153015 -47.32278564 501.9437965 -54.68145752 494.87541199 C-61.56632217 487.27950394 -62.3167763 479.31618678 -62.046875 469.43359375 C-62.02675047 468.08792306 -62.00785245 466.74223358 -61.99005127 465.39653015 C-61.67951556 446.96365237 -60.55077781 428.54278294 -59.51495743 410.13996506 C-59.22328844 404.92381402 -58.94149199 399.70712975 -58.65893555 394.49047852 C-58.25524859 387.05098945 -57.84892783 379.61165449 -57.43878078 372.17251873 C-56.75565267 359.7799672 -56.09087269 347.38654697 -55.44140625 334.9921875 C-55.39673847 334.13988997 -55.35207069 333.28759243 -55.30604935 332.4094677 C-55.08825799 328.25154219 -54.87085529 324.0935965 -54.65368652 319.93563843 C-54.3412655 313.9561433 -54.0264355 307.97677565 -53.71133423 301.99742126 C-53.56423225 299.20582809 -53.41757834 296.41421197 -53.27133179 293.62257385 C-52.91264445 286.78146254 -52.55011831 279.94058941 -52.17944431 273.10011578 C-51.99095544 269.61774296 -51.80406906 266.13528492 -51.61731529 262.65281868 C-51.52720271 260.98054937 -51.43633199 259.30832071 -51.34464455 257.63613701 C-51.21699476 255.30708563 -51.09200079 252.97790474 -50.9675293 250.64868164 C-50.92954161 249.96820581 -50.89155392 249.28772999 -50.85241508 248.58663368 C-50.15009544 235.25494547 -50.99067378 223.71401766 -60.05078125 213.05078125 C-63.22663817 210.14828923 -66.81485705 208.00407164 -70.47241211 205.75878906 C-90.99393118 193.07306125 -103.47236938 173.31149738 -109.05126953 149.84082031 C-117.86639968 109.5784028 -110.03933371 61.31589145 -87.74023438 26.46582031 C-84.03182106 20.96637604 -79.88021867 15.82089037 -75.59375 10.765625 C-74.99949219 10.05535156 -74.40523438 9.34507813 -73.79296875 8.61328125 C-55.37451372 -11.54190155 -22.55905921 -14.50225235 0 0 Z " fill="#81ADE2" transform="translate(383.59375,8.234375)"/>
<path d="M0 0 C5.12109012 -0.05022144 10.24203041 -0.08609891 15.36331177 -0.10986328 C17.09791568 -0.11979189 18.83250347 -0.13333925 20.56704712 -0.15087891 C35.73092391 -0.30014154 50.09049141 1.0809814 65 4 C65 8.82157457 64.05687317 9.55842209 61.0625 13.1875 C36.0154538 44.9467942 29.5621841 91.19960016 33.46875 130.3984375 C36.20500238 152.39142203 45.09630915 172.53004618 61 188 C61.87398437 188.87011719 61.87398437 188.87011719 62.765625 189.7578125 C65.96162483 192.71169113 69.48200652 194.95933798 73.17285156 197.25854492 C83.79334463 203.88468976 90.5859549 210.83101237 93.58154297 223.44970703 C94.1786171 228.51543169 93.9042128 233.46288557 93.67578125 238.55078125 C93.62738602 239.72707596 93.57899078 240.90337067 93.52912903 242.11531067 C93.3620223 246.07732126 93.18338959 250.03871803 93 254 C92.96817375 254.69079399 92.9363475 255.38158798 92.90355682 256.09331512 C92.40216753 266.93982725 91.86406559 277.78443703 91.31650925 288.62870407 C91.185288 291.23137321 91.05484441 293.83408035 90.92459106 296.4367981 C89.64369906 322.0110502 88.26313998 347.57855312 86.81229782 373.14367294 C84.9622615 405.75158782 83.43100042 438.37118208 82 471 C73.49905919 474.27728932 73.49905919 474.27728932 69.40625 475.09765625 C68.601875 475.25943359 67.7975 475.42121094 66.96875 475.58789062 C66.1540625 475.74451172 65.339375 475.90113281 64.5 476.0625 C63.71625 476.22298828 62.9325 476.38347656 62.125 476.54882812 C46.95121372 479.53796798 32.11303881 480.40482125 16.6875 480.375 C15.24207825 480.37518127 15.24207825 480.37518127 13.76745605 480.37536621 C-7.71413123 480.33711901 -28.30187575 477.95903118 -49 472 C-49.80554881 469.13538065 -50.15656106 466.51263376 -50.25515747 463.54150391 C-50.28797758 462.64628021 -50.32079769 461.75105652 -50.35461235 460.82870483 C-50.38728266 459.84624786 -50.41995296 458.86379089 -50.45361328 457.8515625 C-50.8249464 447.96688636 -51.28007319 438.08876426 -51.80029297 428.2109375 C-51.83696902 427.51176334 -51.87364506 426.81258919 -51.9114325 426.09222794 C-52.14542723 421.63390038 -52.38142587 417.17568079 -52.61803198 412.71749115 C-52.83110863 408.69729006 -53.04266675 404.67700899 -53.25442505 400.65673828 C-53.61161965 393.87918571 -53.96976547 387.10168399 -54.32861328 380.32421875 C-54.82336414 370.97996353 -55.316388 361.63561783 -55.80904722 352.29125214 C-56.15971239 345.64138227 -56.5108078 338.99153511 -56.86194324 332.34169006 C-56.94870396 330.69853277 -57.0354521 329.05537481 -57.12218761 327.41221619 C-58.0098535 310.59644835 -58.89977218 293.78083227 -59.81546664 276.96656418 C-59.92511955 274.9519739 -60.03451338 272.93736974 -60.14380836 270.92276001 C-60.4744351 264.82971109 -60.80677937 258.73677037 -61.14328003 252.64404297 C-61.25854248 250.52572155 -61.3737117 248.40739505 -61.48876953 246.2890625 C-61.54127995 245.35334412 -61.59379036 244.41762573 -61.647892 243.45355225 C-62.3669928 230.0883217 -61.96559888 218.74643702 -53 208 C-47.84537738 202.48055249 -41.65196732 198.89821837 -35.203125 195.06640625 C-31.31249514 192.55647553 -28.03168648 189.67620959 -24.70703125 186.46875 C-23 185 -23 185 -21 185 C-20.62101562 184.16275391 -20.62101562 184.16275391 -20.234375 183.30859375 C-18.81459495 180.65324562 -17.09587735 178.44139232 -15.25 176.0625 C-6.70265378 164.44369361 -0.93174069 150.40956869 -0.84178162 135.88760376 C-0.82709839 134.08301697 -0.82709839 134.08301697 -0.81211853 132.24197388 C-0.80636307 130.93574066 -0.8006076 129.62950745 -0.79467773 128.28369141 C-0.78508976 126.88380653 -0.77507915 125.48392449 -0.76467896 124.08404541 C-0.73772334 120.29528357 -0.71666341 116.5065094 -0.69667697 112.71770525 C-0.67475955 108.75386864 -0.6473991 104.79006965 -0.62062073 100.82626343 C-0.57077149 93.32538199 -0.52580394 85.82447958 -0.48259836 78.32355726 C-0.43315946 69.78183876 -0.37826607 61.24015802 -0.32291877 52.69847608 C-0.20921804 35.13235232 -0.10235322 17.56619346 0 0 Z " fill="#0055A3" transform="translate(240,16)"/>
<path d="M0 0 C16.86207337 16.77174083 29.83074883 35.00213085 41 56 C41.40702148 56.75796875 41.81404297 57.5159375 42.23339844 58.296875 C53.73993381 80.05609026 61.19400171 104.73823992 65 129 C65.18256348 130.15556396 65.36512695 131.31112793 65.55322266 132.50170898 C67.15355387 143.77171737 67.39916633 154.9407749 67.375 166.3125 C67.37445618 167.27844086 67.37391235 168.24438171 67.37335205 169.23959351 C67.31122837 193.31301709 63.97084367 215.91782037 57 239 C56.74911621 239.83515137 56.49823242 240.67030273 56.23974609 241.53076172 C46.19496387 274.14562052 28.21088189 304.08309584 5 329 C3.78661781 330.39144666 2.57802197 331.78708639 1.375 333.1875 C-4.31340022 339.68110756 -10.38978377 345.27528833 -17.125 350.68359375 C-18.9759966 352.17495378 -20.81090849 353.68661746 -22.625 355.22265625 C-27.89859204 359.67224953 -33.33762845 363.72109753 -39.0625 367.5625 C-40.04621582 368.22560181 -40.04621582 368.22560181 -41.04980469 368.90209961 C-45.74751632 372 -45.74751632 372 -48 372 C-48.03238895 371.37761255 -48.06477791 370.75522511 -48.09814835 370.11397743 C-49.02614092 352.2827885 -49.9553506 334.45166322 -50.88524777 316.62057352 C-51.1276718 311.97174823 -51.369963 307.32291603 -51.6121493 302.67407835 C-53.94251249 257.85828021 -53.94251249 257.85828021 -56.35546875 213.046875 C-56.4283996 211.7150651 -56.4283996 211.7150651 -56.5028038 210.35634995 C-56.93457671 202.47238105 -57.36831603 194.58853945 -57.81280804 186.70527649 C-57.92949618 184.62830573 -58.04478934 182.55126296 -58.15950012 180.47418213 C-58.29324338 178.05602065 -58.42939295 175.63798999 -58.56889343 173.22015381 C-59.41030504 157.87622194 -59.82181911 144.21518638 -49 132 C-45.83575868 129.38320527 -42.4640881 127.19698803 -39 125 C-15.73194788 109.32394072 -4.50603466 89.26506792 1 62 C1.8295084 57.04177688 2.15978548 52.20558435 2.16796875 47.1875 C2.17129715 46.45611816 2.17462555 45.72473633 2.17805481 44.97119141 C2.18309094 43.42822898 2.18546417 41.88525579 2.18530273 40.34228516 C2.18746812 38.03398597 2.20560056 35.72618233 2.22460938 33.41796875 C2.2559738 24.84456697 1.76101216 16.61023255 0.4309082 8.13671875 C0.05068698 5.36896675 -0.08268639 2.78715218 0 0 Z " fill="#005BAF" transform="translate(429,89)"/>
<path d="M0 0 C0.33 0 0.66 0 1 0 C1.00808685 0.76262146 1.01617371 1.52524292 1.02450562 2.31097412 C1.10290404 9.54772031 1.19032518 16.78427783 1.28752708 24.02079391 C1.33717391 27.73989996 1.38350262 31.45898185 1.421875 35.17822266 C1.45913239 38.77695404 1.50559299 42.3754661 1.55806351 45.97400665 C1.58523046 47.99429557 1.60320865 50.01470146 1.62094116 52.03509521 C1.98729939 75.27442482 9.25929791 94.47993319 26 111 C32.13972918 116.56573113 38.870798 120.90697813 46.01953125 125.04296875 C49.11907761 127.07818858 51.47342289 129.2973548 54 132 C54.680625 132.721875 55.36125 133.44375 56.0625 134.1875 C64.93456203 147.06629971 63.13676502 161.17169006 62.31323242 176.00610352 C62.23902757 177.38156786 62.16508628 178.75704643 62.09138489 180.13253784 C61.89132573 183.85274965 61.68765471 187.57275586 61.48336196 191.29273725 C61.26632323 195.25728824 61.05282183 199.2220298 60.83894348 203.18675232 C60.43046295 210.74955764 60.01909142 218.31220263 59.60656482 225.87478822 C58.88083514 239.18127725 58.16060004 252.48806495 57.44014084 265.79484022 C57.21988683 269.8628977 56.99950336 273.93094808 56.77880478 277.99898148 C55.13345905 308.32999942 53.54699624 338.66379913 52 369 C48.81914302 367.75984348 46.04987673 366.52609561 43.25 364.56640625 C42.56574951 364.0880835 41.88149902 363.60976074 41.17651367 363.11694336 C40.45826416 362.60397705 39.74001465 362.09101074 39 361.5625 C38.24887939 361.02826416 37.49775879 360.49402832 36.72387695 359.94360352 C29.82727039 354.97831055 23.34552756 349.64523285 17 344 C16.24493164 343.33750244 16.24493164 343.33750244 15.47460938 342.66162109 C-29.52698689 303.10469806 -57.75537182 245.58877594 -63 186 C-63.15738517 182.8149934 -63.20917944 179.63384557 -63.23828125 176.4453125 C-63.2480751 175.55429337 -63.25786896 174.66327423 -63.26795959 173.74525452 C-63.51508714 145.41601087 -61.2341722 119.26537141 -53 92 C-52.74911621 91.16484863 -52.49823242 90.32969727 -52.23974609 89.46923828 C-42.0015015 56.22621772 -23.26095331 25.74797348 0 0 Z " fill="#0066C5" transform="translate(79,92)"/>
<path d="M0 0 C4.81287178 3.96390074 7.87001531 8.65618393 11 14 C11.61464111 15.03447266 11.61464111 15.03447266 12.24169922 16.08984375 C34.29416713 53.90916596 41.19982261 101.11025864 30.45922852 143.56713867 C23.98828577 167.05236131 10.03232272 184.14732409 -10.8125 196.4375 C-18.59140589 201.28668808 -23.8509093 209.0769754 -26 218 C-26.4733856 220.99498411 -26.79694383 223.97516333 -27 227 C-27.66 226.29875 -28.32 225.5975 -29 224.875 C-33.14564264 220.75245286 -37.82035359 217.37191323 -42.76171875 214.26171875 C-63.24485898 201.32922629 -75.85438086 181.64784489 -81.45751953 158.07519531 C-90.27264968 117.8127778 -82.44558371 69.55026645 -60.14648438 34.70019531 C-56.43807106 29.20075104 -52.28646867 24.05526537 -48 19 C-47.40574219 18.28972656 -46.81148438 17.57945313 -46.19921875 16.84765625 C-35.67570503 5.33185091 -15.69183279 -4.40262121 0 0 Z " fill="#B1C9EB" transform="translate(356,0)"/>
<path d="M0 0 C0.91007812 0.00128906 1.82015625 0.00257812 2.7578125 0.00390625 C9.46851504 0.09351504 9.46851504 0.09351504 11.75 2.375 C12.0284729 4.89334106 12.0284729 4.89334106 12.06884766 8.10986328 C12.08871735 9.31095734 12.10858704 10.51205139 12.12905884 11.74954224 C12.14061005 13.05164642 12.15216125 14.35375061 12.1640625 15.6953125 C12.1827677 17.03768107 12.20234062 18.38003781 12.2227478 19.72238159 C12.27414391 23.25686678 12.31372926 26.79139012 12.35089111 30.3260498 C12.39088414 33.93230688 12.44199783 37.53840422 12.4921875 41.14453125 C12.5890351 48.22123729 12.67341142 55.29804339 12.75 62.375 C13.43040848 61.89628952 14.11081696 61.41757904 14.81184387 60.92436218 C15.70771713 60.29536514 16.60359039 59.6663681 17.52661133 59.01831055 C18.41326981 58.39522507 19.29992828 57.77213959 20.2134552 57.13017273 C23.23374419 55.0402712 26.29995731 53.09679511 29.4375 51.1875 C30.47261719 50.55457031 31.50773437 49.92164063 32.57421875 49.26953125 C35.75 47.375 35.75 47.375 39.39648438 45.8371582 C41.63544418 44.54842251 42.56786816 43.92505235 43.38838196 41.44703674 C43.62577216 38.96941569 43.64075522 36.5742956 43.58203125 34.0859375 C43.58957932 33.1863028 43.59712738 32.28666809 43.60490417 31.35977173 C43.62342126 28.48882902 43.5949477 25.62078008 43.5625 22.75 C43.55649984 19.87280101 43.56023776 16.99597765 43.57365417 14.11880493 C43.57916499 12.32922563 43.57180254 10.53955244 43.55049133 8.75009155 C43.54332151 6.62403277 43.63768123 4.49810194 43.75 2.375 C46.50944605 -0.38444605 48.14236698 0.11694323 52 0.109375 C53.87171875 0.10550781 53.87171875 0.10550781 55.78125 0.1015625 C57.74578125 0.11316406 57.74578125 0.11316406 59.75 0.125 C61.0596875 0.11726562 62.369375 0.10953125 63.71875 0.1015625 C64.9665625 0.10414062 66.214375 0.10671875 67.5 0.109375 C68.64984375 0.11163086 69.7996875 0.11388672 70.984375 0.11621094 C73.75 0.375 73.75 0.375 75.75 2.375 C76.00333309 4.63459396 76.00333309 4.63459396 76.00828552 7.51043701 C76.01511353 8.59835541 76.02194153 9.6862738 76.02897644 10.80715942 C76.02642349 12.00613861 76.02387054 13.2051178 76.02124023 14.44042969 C76.02926357 16.37247623 76.03728931 18.30452277 76.04540551 20.23656893 C76.05227039 22.31723652 76.05426139 24.39786018 76.05496025 26.47853851 C76.05689861 30.81545561 76.07494017 35.15221241 76.09571838 39.48907471 C76.14494593 50.26484785 76.17576815 61.04066476 76.19702148 71.81652832 C76.21355219 80.18360349 76.23640016 88.5505419 76.28004223 96.91752553 C76.30180049 101.22616096 76.30987806 105.53453652 76.30764949 109.84322309 C76.30971184 113.15955327 76.33107824 116.47571287 76.34936523 119.79199219 C76.34478806 120.98287445 76.34021088 122.17375671 76.335495 123.40072632 C76.38830258 131.31179851 76.38830258 131.31179851 79.75 138.375 C83.62469731 141.87167806 86.23905262 143.42390526 91.375 143.9375 C92.19226563 144.02128906 93.00953125 144.10507813 93.8515625 144.19140625 C94.47804688 144.25199219 95.10453125 144.31257812 95.75 144.375 C94.62911888 160.81458982 83.32914711 175.36058817 71.43554688 185.98193359 C66.57943318 189.99540184 61.13831818 193.13939974 55.75 196.375 C48.05585768 201.24041353 41.72365548 207.58852049 38.75 216.375 C37.89227977 220.35482185 37.26148054 224.33699573 36.75 228.375 C34.14763248 226.36745934 31.76514848 224.39118133 29.515625 221.98828125 C26.49510881 219.13414943 23.29440407 217.23549008 19.6875 215.25 C0.26339277 204.04057715 -12.15380654 186.87304317 -18.5234375 165.41015625 C-20.44070163 157.40093997 -20.41104135 149.56737928 -20.42700195 141.36499023 C-20.43327527 139.94513791 -20.43992282 138.5252872 -20.44691467 137.10543823 C-20.46783845 132.46483479 -20.47829986 127.82423142 -20.48828125 123.18359375 C-20.49233192 121.58176215 -20.49644893 119.97993071 -20.50063133 118.37809944 C-20.51965016 110.8570921 -20.53389316 103.33609443 -20.5422433 95.81506771 C-20.55203095 87.14417545 -20.5784039 78.47353743 -20.61874419 69.80273479 C-20.64890062 63.09002671 -20.66371135 56.37739162 -20.66702431 49.66461712 C-20.6693735 45.65924034 -20.67831814 41.65413624 -20.70348549 37.64883232 C-20.72676602 33.88368911 -20.73099984 30.11899826 -20.72072411 26.35380173 C-20.72022878 24.97433911 -20.72654848 23.59485418 -20.74028015 22.21545982 C-20.8616229 9.30157265 -20.8616229 9.30157265 -16.25 4.375 C-11.11006824 -0.25709419 -6.57348629 -0.17996576 0 0 Z " fill="#B1C9EB" transform="translate(100.25,-0.375)"/>
<path d="M0 0 C4.58634819 1.50815138 9.15713128 3.04647279 13.69921875 4.68359375 C50.64400157 17.82634308 89.6266403 17.70098595 126.44726562 3.91967773 C130.27396702 2.54102585 134.13801699 1.27588258 138 0 C138.27194559 17.55937597 137.47033676 35.04238688 136.60931396 52.57348633 C136.4246692 56.3554564 136.24581766 60.13770057 136.06640625 63.91992188 C135.71644772 71.28021997 135.36031681 78.64020091 135 86 C126.49905919 89.27728932 126.49905919 89.27728932 122.40625 90.09765625 C121.601875 90.25943359 120.7975 90.42121094 119.96875 90.58789062 C119.1540625 90.74451172 118.339375 90.90113281 117.5 91.0625 C116.324375 91.30323242 116.324375 91.30323242 115.125 91.54882812 C99.95121372 94.53796798 85.11303881 95.40482125 69.6875 95.375 C68.24207825 95.37518127 68.24207825 95.37518127 66.76745605 95.37536621 C45.28586877 95.33711901 24.69812425 92.95903118 4 87 C3.21205594 84.18563054 2.84792901 81.61350024 2.75390625 78.6953125 C2.72224365 77.82108643 2.69058105 76.94686035 2.65795898 76.04614258 C2.62645752 75.08216553 2.59495605 74.11818848 2.5625 73.125 C2.27854831 65.31111567 1.93270321 57.50566303 1.4921875 49.69921875 C0.56010597 33.12044081 -0.35857167 16.61382063 0 0 Z " fill="#0066C4" transform="translate(187,401)"/>
<path d="M0 0 C11.27811508 11.27811508 10.28018712 39.98662034 10.31741333 55.05075073 C10.26775749 91.93276207 -2.46942253 130.65367026 -28 158 C-28.66 158.33 -29.32 158.66 -30 159 C-30.7864047 145.12602703 -31.56887665 131.25183694 -32.34690857 117.37739182 C-32.70833939 110.93411006 -33.07099948 104.49090252 -33.43652344 98.04785156 C-33.78959633 91.8234586 -34.13936886 85.59888796 -34.48690796 79.37418365 C-34.61969854 77.00602934 -34.75365394 74.63794002 -34.88882446 72.26992035 C-35.07875969 68.93890356 -35.2644535 65.60767422 -35.44921875 62.27636719 C-35.50532318 61.30963074 -35.56142761 60.34289429 -35.61923218 59.34686279 C-35.88646709 54.4493153 -36.06621554 49.55522248 -36.13598633 44.6506958 C-36.14986893 43.70468128 -36.16375153 42.75866676 -36.17805481 41.78398514 C-35.64807676 33.49748612 -31.46034225 25.16339061 -26 19 C-22.83553489 16.3830202 -19.46253667 14.19972918 -16 12 C-14.24335472 10.80134793 -12.49319205 9.5931342 -10.75 8.375 C-9.93273437 7.80394531 -9.11546875 7.23289063 -8.2734375 6.64453125 C-5.38886309 4.5579233 -2.68724347 2.33365881 0 0 Z " fill="#004281" transform="translate(406,202)"/>
<path d="M0 0 C5.74321308 2.67356471 10.95691183 6.38965162 16.24316406 9.85693359 C17.79413891 10.8660587 19.36081487 11.8509629 20.9296875 12.83203125 C29.93797486 18.67783475 33.83125618 25.61602374 37.3359375 35.6171875 C38.95938269 43.8872083 37.9379142 52.70045774 37.44921875 61.07104492 C37.39069733 62.11628326 37.3321759 63.16152161 37.2718811 64.23843384 C37.08000589 67.65261747 36.88379105 71.0665364 36.6875 74.48046875 C36.5527091 76.86369836 36.41819183 79.24694346 36.28393555 81.63020325 C35.93155969 87.87244099 35.57548973 94.11446263 35.21862793 100.35644531 C34.85444108 106.73815394 34.49377887 113.12006167 34.1328125 119.50195312 C33.42530797 132.0014985 32.71389737 144.50081823 32 157 C6.2269311 131.33249353 -8.02039539 92.39905304 -8.18554688 56.26757812 C-8.18619141 54.96240234 -8.18683594 53.65722656 -8.1875 52.3125 C-8.19974609 51.02666016 -8.21199219 49.74082031 -8.22460938 48.41601562 C-8.24317977 36.16574514 -6.36758185 24.73444106 -3.4375 12.875 C-3.21642578 11.9571875 -2.99535156 11.039375 -2.76757812 10.09375 C-1.93941157 6.68100324 -1.11106448 3.33319345 0 0 Z " fill="#0055A3" transform="translate(104,204)"/>
<path d="M0 0 C0.33 0 0.66 0 1 0 C1.14244383 11.54586416 0.7165863 22.97931225 0 34.5 C-0.09678882 36.11325523 -0.19314494 37.72653648 -0.2890625 39.33984375 C-0.5210817 43.22687894 -0.7588587 47.11352051 -1 51 C-23.05314748 62.42683253 -47.29949887 67.41121703 -72.0625 67.375 C-72.7305365 67.37412384 -73.398573 67.37324768 -74.08685303 67.37234497 C-96.94235374 67.27435892 -121.03034959 62.68036156 -141 51 C-141 48.69 -141 46.38 -141 44 C-140.09846191 44.07001221 -139.19692383 44.14002441 -138.26806641 44.2121582 C-128.96142868 44.88993072 -119.71012557 45.18285103 -110.375 45.1875 C-109.07304687 45.19974609 -107.77109375 45.21199219 -106.4296875 45.22460938 C-98.0919307 45.23711601 -90.19152899 44.54204202 -82 43 C-81.2462207 42.86456787 -80.49244141 42.72913574 -79.71582031 42.58959961 C-50.1749839 36.99933152 -21.26766484 21.26766484 0 0 Z " fill="#004281" transform="translate(327,349)"/>
<path d="M0 0 C44.56914894 0 44.56914894 0 65 4 C65 8.82157457 64.05687317 9.55842209 61.0625 13.1875 C46.9890868 31.03238544 38.33696588 54.715498 35.390625 77.1328125 C35 80 35 80 34 81 C22.78 81 11.56 81 0 81 C0 54.27 0 27.54 0 0 Z " fill="#0067C5" transform="translate(240,16)"/>
<path d="M0 0 C0.09359702 14.33437185 0.16378798 28.66869605 0.20724869 43.00331116 C0.22810935 49.65971946 0.25639972 56.31586764 0.30175781 62.97216797 C0.34526877 69.39772559 0.36914858 75.82308571 0.37950897 82.2487793 C0.38689081 84.69835519 0.4013058 87.14792046 0.42292023 89.59741211 C0.45202288 93.03262561 0.45595298 96.46702649 0.45410156 99.90234375 C0.47567322 101.4160984 0.47567322 101.4160984 0.49768066 102.96043396 C0.45673925 109.99639594 -0.79603112 115.70684141 -5.82421875 120.875 C-10.85063683 123.90981846 -15.14218371 125.17373684 -21 124 C-26.3035228 121.29820537 -30.09832298 117.70503105 -32 112 C-32.08844068 110.57850376 -32.12198928 109.15320189 -32.12025452 107.72895813 C-32.12162918 106.85817627 -32.12300385 105.98739441 -32.12442017 105.09022522 C-32.12082489 104.13788498 -32.11722961 103.18554474 -32.11352539 102.2043457 C-32.11367142 101.19928986 -32.11381744 100.19423401 -32.1139679 99.15872192 C-32.11327029 95.83105321 -32.10548494 92.50344021 -32.09765625 89.17578125 C-32.09579153 86.8707838 -32.09436788 84.56578595 -32.09336853 82.26078796 C-32.08954759 76.18955392 -32.07972089 70.11834374 -32.06866455 64.04711914 C-32.05844135 57.85368167 -32.05386896 51.66024035 -32.04882812 45.46679688 C-32.03809827 33.31118742 -32.0210269 21.15559569 -32 9 C-29.15876444 8.0353515 -26.3161708 7.07507606 -23.47265625 6.1171875 C-22.6775061 5.84672607 -21.88235596 5.57626465 -21.06311035 5.29760742 C-5.29526969 0 -5.29526969 0 0 0 Z " fill="#0066C4" transform="translate(208,20)"/>
<path d="M0 0 C-0.33 12.21 -0.66 24.42 -1 37 C-10.01329787 40.3799867 -10.01329787 40.3799867 -13.59375 41.09765625 C-14.398125 41.25943359 -15.2025 41.42121094 -16.03125 41.58789062 C-16.8459375 41.74451172 -17.660625 41.90113281 -18.5 42.0625 C-19.28375 42.22298828 -20.0675 42.38347656 -20.875 42.54882812 C-36.04878628 45.53796798 -50.88696119 46.40482125 -66.3125 46.375 C-67.75792175 46.37518127 -67.75792175 46.37518127 -69.23254395 46.37536621 C-90.71413123 46.33711901 -111.30187575 43.95903118 -132 38 C-132.93619813 34.84493858 -133.1057123 32.03413498 -133.0625 28.75 C-133.05347656 27.85796875 -133.04445312 26.9659375 -133.03515625 26.046875 C-133.02355469 25.37140625 -133.01195312 24.6959375 -133 24 C-131.0511792 24.01571045 -131.0511792 24.01571045 -129.06298828 24.03173828 C-124.15383763 24.06846567 -119.24469858 24.09108843 -114.33544922 24.10986328 C-112.2273554 24.11980258 -110.11927491 24.1333587 -108.01123047 24.15087891 C-91.59080018 24.28374293 -75.46770203 23.78420863 -59.375 20.1875 C-58.58762451 20.01500732 -57.80024902 19.84251465 -56.98901367 19.66479492 C-44.80924091 16.91167285 -33.1923394 12.77596631 -21.5 8.4375 C-20.48462158 8.06149658 -19.46924316 7.68549316 -18.4230957 7.2980957 C-13.97383107 5.61964822 -9.64152716 3.89085106 -5.40625 1.72265625 C-2 0 -2 0 0 0 Z " fill="#0055A3" transform="translate(323,450)"/>
<path d="M0 0 C0.11602483 11.46588398 0.20478204 22.93162751 0.25906086 34.39797974 C0.2851166 39.72272529 0.32044145 45.04706819 0.37719727 50.37158203 C0.43166008 55.51335591 0.46145079 60.65474331 0.47438622 65.79678345 C0.48360047 67.75515829 0.50159397 69.7135128 0.52865028 71.67172241 C0.56513054 74.42223245 0.56993747 77.17116064 0.56762695 79.921875 C0.58560333 80.72532852 0.60357971 81.52878204 0.62210083 82.35658264 C0.5682152 88.31372824 -1.18713879 92.4092864 -5 97 C-9.25360558 100.59505057 -13.30971987 101.66042623 -18.859375 101.38671875 C-23.50999133 100.54655266 -26.24679254 97.83463529 -29.3125 94.4375 C-32.07942999 90.44082335 -32.1649073 87.20717209 -32.28808594 82.45239258 C-32.31480881 81.46151642 -32.31480881 81.46151642 -32.34207153 80.45062256 C-32.49644948 74.36099076 -32.58396873 68.2698044 -32.65206528 62.17865467 C-32.69824063 58.09057484 -32.76564543 54.0053616 -32.88476562 49.91870117 C-32.99972331 45.95972045 -33.05999011 42.0033101 -33.0825882 38.04276085 C-33.10030738 36.5390441 -33.13701522 35.0354197 -33.19359589 33.53266335 C-33.61449869 21.79973632 -33.61449869 21.79973632 -29.60479736 17.32998657 C-26.81894001 15.28062456 -24.05947084 13.60397863 -21 12 C-19.7694529 11.21333768 -18.54420819 10.41821704 -17.328125 9.609375 C-15.80445313 8.68898438 -15.80445313 8.68898438 -14.25 7.75 C-13.1671875 7.09515625 -12.084375 6.4403125 -10.96875 5.765625 C-1.27433628 0 -1.27433628 0 0 0 Z " fill="#0067C5" transform="translate(144,43)"/>
<path d="M0 0 C0.116965 4.33310328 0.1875089 8.6657958 0.25 13 C0.30027344 14.83111328 0.30027344 14.83111328 0.3515625 16.69921875 C0.43918343 24.8041545 0.0780197 30.8084594 -5.82421875 36.875 C-10.85063683 39.90981846 -15.14218371 41.17373684 -21 40 C-26.3035228 37.29820537 -30.09832298 33.70503105 -32 28 C-32.07029121 25.42734182 -32.09370832 22.88358569 -32.0625 20.3125 C-32.05798828 19.61060547 -32.05347656 18.90871094 -32.04882812 18.18554688 C-32.03706927 16.45699462 -32.01913454 14.72848635 -32 13 C-6.58064516 0 -6.58064516 0 0 0 Z " fill="#0155A3" transform="translate(208,104)"/>
<path d="M0 0 C0.97699187 2.93097561 1.07772368 4.55058492 0.94921875 7.578125 C0.91111084 8.48546387 0.87300293 9.39280273 0.83374023 10.32763672 C0.78548096 11.2920166 0.73722168 12.25639648 0.6875 13.25 C0.64117432 14.2311377 0.59484863 15.21227539 0.54711914 16.22314453 C0.1278228 24.22836854 -0.73029543 32.08591909 -2 40 C-2.33 40 -2.66 40 -3 40 C-3.32748996 35.06425847 -3.62671269 30.12838198 -3.88427734 25.18847656 C-3.98305376 23.32047695 -4.09380412 21.45311691 -4.20703125 19.5859375 C-4.46609621 12.31292874 -2.92952481 6.64374377 0 0 Z " fill="#095BA6" transform="translate(374,230)"/>
</svg>
